<?xml version="1.0" standalone="no"?>
<!DOCTYPE svg PUBLIC "-//W3C//DTD SVG 20010904//EN"
 "http://www.w3.org/TR/2001/REC-SVG-20010904/DTD/svg10.dtd">
<svg version="1.0" xmlns="http://www.w3.org/2000/svg"
 width="512.000000pt" height="512.000000pt" viewBox="0 0 512.000000 512.000000"
 preserveAspectRatio="xMidYMid meet">

<g transform="translate(0.000000,512.000000) scale(0.100000,-0.100000)"
fill="#000000" stroke="none">
<path d="M3852 4815 c-16 -13 -71 -96 -121 -184 -85 -148 -92 -163 -89 -208 3
-46 -4 -60 -140 -294 -78 -136 -142 -256 -142 -266 0 -11 9 -32 21 -47 25 -32
87 -37 111 -8 8 9 71 114 138 232 68 118 128 221 134 227 9 10 28 0 86 -43
226 -170 391 -366 513 -609 61 -124 103 -243 89 -257 -18 -18 -59 -12 -94 15
-78 60 -167 73 -247 37 -52 -24 -203 -168 -236 -225 -13 -22 -26 -55 -30 -72
l-7 -33 -168 0 -168 0 5 39 c8 56 -28 91 -92 91 -64 0 -100 -35 -92 -91 l5
-39 -125 0 c-68 0 -123 4 -121 8 2 5 60 107 131 229 71 123 127 232 127 246 0
61 -87 96 -129 51 -25 -26 -399 -677 -407 -708 -7 -28 18 -81 45 -96 13 -7
306 -10 869 -10 835 0 849 0 867 -20 29 -32 80 -40 254 -40 146 0 170 2 207
20 67 33 78 68 71 215 -16 320 -93 613 -233 895 -40 80 -99 186 -131 235 -176
269 -442 528 -702 684 -100 61 -150 67 -199 26z m184 -196 c314 -214 547 -481
714 -817 122 -245 194 -517 215 -814 l7 -88 -136 0 -135 0 -5 33 c-3 17 -7 66
-10 107 -18 262 -128 581 -282 818 -144 222 -349 429 -548 553 -22 13 -44 27
-48 30 -9 6 120 239 132 239 3 0 46 -27 96 -61z m215 -1364 c82 -59 150 -77
221 -57 35 10 37 9 42 -16 11 -50 26 -167 26 -199 l0 -33 -270 0 -270 0 0 76
0 76 68 70 c65 69 115 108 138 108 6 0 26 -11 45 -25z"/>
<path d="M2025 4779 c-738 -80 -1397 -520 -1747 -1166 -345 -634 -368 -1375
-65 -2036 92 -199 301 -504 361 -527 27 -9 74 7 86 30 21 39 9 67 -74 177
-642 848 -564 2015 184 2763 634 634 1589 797 2397 410 124 -59 125 -60 111
-82 -8 -13 -39 -65 -68 -115 -29 -51 -56 -93 -61 -93 -5 0 -42 16 -81 36 -418
211 -934 246 -1388 95 -150 -50 -302 -123 -330 -158 -26 -33 -21 -79 11 -105
27 -23 56 -23 100 1 l37 20 18 -42 c27 -59 110 -140 182 -176 272 -137 588 27
636 330 l10 69 31 -5 c16 -2 57 -7 90 -10 130 -14 425 -94 425 -116 0 -5 -14
-34 -30 -63 l-31 -54 -36 10 c-90 25 -158 -9 -288 -143 -74 -77 -104 -115
-113 -145 -14 -49 -17 -400 -3 -437 8 -21 -13 -63 -160 -317 -105 -182 -169
-302 -169 -319 1 -47 43 -81 102 -81 25 0 36 -6 43 -22 6 -13 26 -31 45 -40
32 -17 89 -18 749 -18 l714 0 -7 -46 c-3 -26 -6 -59 -6 -73 0 -23 -9 -30 -66
-55 -173 -76 -279 -276 -246 -466 12 -69 45 -147 84 -201 l20 -27 -41 -76
c-23 -41 -46 -78 -50 -80 -4 -3 -21 8 -36 24 -33 35 -84 47 -124 30 -16 -6
-69 -53 -119 -103 -119 -123 -126 -158 -47 -246 l36 -39 -73 -40 c-113 -62
-113 -62 -127 1 -15 70 -51 120 -109 154 -45 27 -53 28 -224 33 l-178 5 -47
47 c-57 57 -60 87 -16 144 52 67 65 136 41 218 -15 52 -193 240 -253 267 -35
16 -68 19 -253 19 -257 0 -252 2 -395 -139 l-98 -96 -147 -5 c-169 -6 -183
-11 -274 -97 l-57 -55 -56 86 c-58 88 -126 226 -164 329 l-21 57 46 0 c47 0
217 60 281 100 55 33 87 93 91 170 4 62 0 77 -52 209 -31 78 -56 148 -56 154
0 21 60 140 67 133 4 -4 12 -21 18 -38 18 -55 63 -73 185 -73 98 0 109 2 171
32 134 66 218 191 227 338 8 142 -25 207 -111 220 l-46 7 -58 150 c-74 191
-96 218 -228 278 l-96 44 50 46 c59 54 67 94 29 130 -37 34 -64 35 -109 5 -55
-39 -202 -194 -277 -294 -504 -669 -485 -1605 48 -2256 84 -103 253 -261 360
-337 109 -77 335 -193 461 -237 709 -243 1513 -23 1989 546 258 309 405 669
436 1071 l7 92 135 0 135 0 -7 -112 c-54 -849 -626 -1591 -1436 -1861 -518
-173 -1100 -133 -1589 109 -133 65 -294 167 -400 253 -72 58 -100 63 -137 26
-43 -44 -31 -79 51 -148 246 -207 618 -383 956 -451 192 -39 313 -49 524 -43
338 10 602 73 895 213 245 118 445 259 630 444 185 184 325 384 444 630 137
284 216 619 216 915 0 95 0 96 -34 133 l-34 37 -215 0 c-210 0 -216 -1 -239
-23 l-24 -22 -787 2 -786 3 389 674 c374 649 390 675 431 695 38 20 53 39 136
181 102 176 114 210 90 260 -22 45 -64 75 -197 139 -211 100 -423 166 -645
201 -122 19 -447 27 -570 14z m153 -616 c-9 -91 -70 -177 -153 -218 -49 -23
-160 -31 -212 -15 -21 7 -55 24 -76 38 -39 26 -97 97 -97 119 0 31 351 116
499 122 l44 1 -5 -47z m640 -379 c26 -20 46 -40 44 -46 -1 -5 -66 -120 -144
-254 -135 -236 -141 -244 -159 -228 -17 16 -19 34 -19 203 l0 186 87 87 c103
103 119 108 191 52z m-1730 -206 c54 -23 107 -51 118 -62 19 -18 120 -254 112
-261 -2 -1 -24 -12 -50 -23 -90 -39 -180 -143 -208 -238 -11 -36 -17 -42 -54
-52 -63 -16 -117 -74 -154 -165 -46 -110 -44 -145 23 -317 30 -78 55 -150 55
-160 0 -33 -35 -59 -129 -95 l-95 -36 -48 18 c-26 9 -50 24 -52 32 -15 49 -26
191 -26 320 0 372 115 711 343 1014 28 37 55 67 60 67 5 0 52 -19 105 -42z
m387 -524 c0 -121 -98 -219 -219 -219 l-61 0 1 51 c3 126 122 237 244 231 l35
-2 0 -61z m2415 -906 c0 -83 -184 -508 -220 -508 -18 0 -85 75 -105 115 -24
50 -31 160 -15 212 27 82 90 147 175 180 41 16 165 17 165 1z m-1749 -445
c103 -100 111 -126 60 -191 -79 -102 -68 -212 32 -318 89 -95 113 -104 294
-104 210 0 233 -11 233 -109 l0 -50 -52 -16 c-320 -91 -680 -80 -1001 32 -240
83 -478 234 -657 418 l-55 56 66 64 67 65 128 0 c71 0 147 5 169 11 30 8 67
38 151 120 l112 109 182 0 183 0 88 -87z m1173 -422 l27 -29 -46 -37 -46 -38
-27 26 -26 27 39 40 c21 22 42 40 45 40 4 0 19 -13 34 -29z"/>
<path d="M1601 1577 c-45 -23 -64 -60 -69 -140 -8 -129 36 -237 134 -327 83
-75 133 -81 216 -24 110 77 177 236 157 378 -9 67 -31 102 -75 116 -30 10 -44
8 -108 -15 l-73 -26 -63 25 c-72 29 -85 31 -119 13z m189 -182 c30 0 66 4 79
9 23 8 24 7 17 -35 -8 -48 -42 -113 -75 -143 -21 -19 -22 -19 -52 10 -37 35
-64 85 -73 138 l-7 39 28 -9 c15 -5 53 -9 83 -9z"/>
<path d="M3785 4105 c-37 -36 -33 -79 9 -121 42 -42 85 -46 121 -9 37 36 33
79 -9 121 -42 42 -85 46 -121 9z"/>
<path d="M3729 3831 c-184 -59 -294 -253 -248 -436 13 -52 40 -79 94 -94 130
-35 298 25 380 137 82 111 99 297 33 369 -40 44 -162 55 -259 24z m141 -176
c0 -104 -99 -204 -202 -205 -37 0 -38 1 -38 35 0 104 99 204 203 205 36 0 37
-1 37 -35z"/>
<path d="M1808 3614 c-48 -26 -58 -60 -58 -199 0 -199 16 -215 215 -215 93 0
134 4 155 15 50 26 60 59 60 200 0 200 -16 215 -217 215 -94 -1 -135 -5 -155
-16z m212 -199 l0 -55 -55 0 -55 0 0 55 0 55 55 0 55 0 0 -55z"/>
<path d="M1835 2815 c-56 -55 -15 -135 70 -135 35 0 52 6 70 25 56 55 15 135
-70 135 -35 0 -52 -6 -70 -25z"/>
<path d="M1343 2407 c-103 -103 -103 -103 -103 -152 0 -49 0 -49 103 -152 103
-103 103 -103 152 -103 49 0 49 0 152 103 103 103 103 103 103 152 0 49 0 49
-103 152 -103 103 -103 103 -152 103 -49 0 -49 0 -152 -103z m195 -194 l-42
-43 -43 42 -43 42 42 43 42 43 43 -42 43 -42 -42 -43z"/>
<path d="M3125 2335 c-56 -55 -15 -135 70 -135 35 0 52 6 70 25 56 55 15 135
-70 135 -35 0 -52 -6 -70 -25z"/>
<path d="M2315 2205 c-56 -55 -15 -135 70 -135 35 0 52 6 70 25 56 55 15 135
-70 135 -35 0 -52 -6 -70 -25z"/>
<path d="M2797 1980 c-66 -17 -140 -61 -194 -116 -103 -106 -94 -182 27 -240
61 -29 67 -35 100 -100 28 -55 43 -73 73 -88 36 -17 40 -17 83 -1 127 48 224
227 211 387 -11 125 -48 158 -181 164 -45 2 -98 -1 -119 -6z m140 -208 c-5
-58 -25 -110 -55 -145 -15 -16 -17 -14 -41 30 -19 35 -39 55 -75 74 l-48 26
33 25 c45 34 84 46 143 47 l49 1 -6 -58z"/>
</g>
</svg>
